<?xml version="1.0" standalone="no"?>
<!DOCTYPE svg PUBLIC "-//W3C//DTD SVG 20010904//EN"
 "http://www.w3.org/TR/2001/REC-SVG-20010904/DTD/svg10.dtd">
<svg version="1.0" xmlns="http://www.w3.org/2000/svg"
 width="132.000000pt" height="133.000000pt" viewBox="0 0 132.000000 133.000000"
 preserveAspectRatio="xMidYMid meet">

<g transform="translate(0.000000,133.000000) scale(0.100000,-0.100000)"
fill="#000000" stroke="none">
<path d="M535 1304 c-38 -8 -112 -35 -164 -60 -162 -79 -281 -217 -342 -399
-34 -100 -34 -279 -1 -380 40 -118 81 -184 172 -275 134 -135 268 -190 460
-190 126 0 170 10 290 67 221 106 370 343 370 589 0 111 -20 185 -83 309 -127
247 -438 397 -702 339z m225 -64 c104 -16 241 -89 320 -169 70 -71 130 -175
155 -271 19 -72 19 -220 0 -294 -21 -80 -79 -187 -134 -249 -61 -67 -171 -138
-262 -168 -101 -32 -252 -33 -354 -2 -185 58 -332 204 -395 393 -26 75 -31
235 -11 310 83 312 366 498 681 450z"/>
<path d="M765 715 c-98 -102 -184 -185 -191 -185 -7 0 -52 43 -101 95 -48 52
-96 98 -105 101 -28 9 -58 -14 -58 -44 1 -38 228 -272 264 -272 19 0 72 48
223 201 109 110 204 211 211 225 18 34 0 64 -37 64 -24 0 -57 -29 -206 -185z"/>
</g>
</svg>
